<svg width="348" height="272" viewBox="0 0 348 272" fill="none" xmlns="http://www.w3.org/2000/svg">
<path d="M306.684 145.735C280.67 92.5041 206.27 14.5593 109.592 14.3606C8.70949 14.1477 3.81574 90.4033 37.5188 139.376C64.9427 179.198 -4.76606 210.966 52.0724 245.839C109.596 281.118 260.499 265.996 290.76 238.552C321.021 211.108 317.924 168.717 306.684 145.735Z" fill="url(#paint0_linear_5_46)"/>
<path d="M222.37 237.97C282.619 237.97 331.461 189.093 331.461 128.801C331.461 68.5084 282.619 19.6317 222.37 19.6317C162.121 19.6317 113.28 68.5084 113.28 128.801C113.28 189.093 162.121 237.97 222.37 237.97Z" fill="url(#paint1_linear_5_46)"/>
<mask id="mask0_5_46" style="mask-type:luminance" maskUnits="userSpaceOnUse" x="113" y="19" width="219" height="219">
<path d="M222.37 237.97C282.619 237.97 331.461 189.093 331.461 128.801C331.461 68.5084 282.619 19.6317 222.37 19.6317C162.121 19.6317 113.28 68.5084 113.28 128.801C113.28 189.093 162.121 237.97 222.37 237.97Z" fill="white"/>
</mask>
<g mask="url(#mask0_5_46)">
<path d="M203.429 63.8775H190.96V51.4001C190.96 50.4778 190.594 49.5932 189.942 48.941C189.291 48.2888 188.407 47.9223 187.485 47.9223H182.076C181.154 47.9223 180.27 48.2888 179.618 48.941C178.967 49.5932 178.601 50.4778 178.601 51.4001V63.8775H166.132C165.21 63.8775 164.327 64.2439 163.675 64.8962C163.023 65.5484 162.657 66.433 162.657 67.3553V72.7683C162.657 73.6907 163.023 74.5753 163.675 75.2275C164.327 75.8797 165.21 76.2461 166.132 76.2461H178.601V88.7235C178.601 89.1802 178.691 89.6325 178.865 90.0544C179.04 90.4764 179.296 90.8597 179.618 91.1827C179.941 91.5056 180.324 91.7618 180.746 91.9366C181.168 92.1114 181.619 92.2013 182.076 92.2013H187.485C188.407 92.2013 189.291 91.8349 189.942 91.1827C190.594 90.5305 190.96 89.6459 190.96 88.7235V76.2461H203.429C204.35 76.2461 205.234 75.8797 205.886 75.2275C206.538 74.5753 206.904 73.6907 206.904 72.7683V67.3553C206.904 66.8986 206.814 66.4464 206.639 66.0244C206.465 65.6025 206.209 65.2191 205.886 64.8962C205.563 64.5732 205.18 64.317 204.759 64.1423C204.337 63.9675 203.885 63.8775 203.429 63.8775Z" fill="white"/>
<path d="M171.409 137.218C171.409 137.218 168.326 132.103 169.272 129.932C170.217 127.76 171.792 126.506 172.61 120.852C173.428 115.197 175.716 111.672 176.232 111.019C176.747 110.366 175.901 108.18 173.868 109.429C171.834 110.678 170.43 112.817 169.801 116.475C169.172 120.132 166.936 117.856 165.796 115.599C164.657 113.342 163.309 104.423 162.893 101.045C162.477 97.6664 161.612 95.116 160.085 95.646C158.558 96.1759 159.319 103.079 159.688 105.185C160.056 107.291 160.463 111.308 159.796 111.568C159.13 111.828 157.659 104.754 156.619 101.75C155.579 98.7452 154.671 94.9267 152.751 95.5986C150.832 96.2705 153.016 101.75 153.739 104.083C154.463 106.415 155.929 112.68 155.631 112.921C155.333 113.163 152.496 105.852 151.891 103.969C151.285 102.086 150.264 98.291 148.255 99.4076C146.245 100.524 150.302 108.956 150.964 110.499C151.626 112.041 153.39 116.238 152.784 116.65C152.179 117.061 147.924 108.776 146.742 107.887C145.56 106.997 144.009 106.638 144.505 109.401C145.002 112.164 148.638 116.726 150.032 119.971C151.427 123.217 153.394 128.11 155.593 130.466C157.792 132.823 160.023 138.382 160.865 140.876C163.04 139.627 171.409 137.218 171.409 137.218Z" fill="url(#paint2_linear_5_46)"/>
<path d="M269.237 271.125C280.329 228.066 270.239 196.464 270.239 196.464L218.947 201.243C218.947 201.243 210.171 280.545 208.365 289.223C208.223 289.914 208.114 293.316 208.044 294.807H234.172C235.567 280.503 239.293 246.17 239.293 246.17C239.293 246.17 239.822 275.36 241.978 294.807H267.553C266.754 289.403 266.674 281.061 269.237 271.125Z" fill="#1F1844"/>
<path d="M202.946 75.5127C205.783 79.0567 205.069 78.5883 206.256 80.4715C207.443 82.3547 208.857 83.0739 210.436 82.8657C212.015 82.6765 211.921 85.9082 214.271 86.8498C216.621 87.7914 212.266 89.5279 214.635 91.6572C217.004 93.7864 220.545 90.7108 218.654 95.2059C216.762 99.701 221.595 98.6648 224.583 101.972C227.571 105.28 231.51 104.338 230.924 109.07C230.337 113.801 238.356 114.98 242.839 114.748C243.652 114.701 244.462 114.606 245.264 114.464C249.685 113.74 255.35 111.956 257.719 112.155C260.556 112.387 265.757 109.552 267.175 105.767C268.594 101.982 272.13 101.509 274.267 99.8666C276.405 98.2247 275.686 95.1349 274.74 89.9301C273.795 84.7253 277.577 85.6716 280.414 84.0203C283.251 82.3689 279.705 79.5346 277.104 74.5569C274.504 69.5792 280.414 70.5397 280.414 66.5131C280.414 62.4864 276.873 62.5054 274.041 61.5543C271.208 60.6032 272.39 54.93 269.785 50.4491C267.18 45.9682 260.579 50.2172 260.801 45.0124C261.024 39.8075 259.383 40.5267 255.846 39.3344C252.309 38.142 253.577 39.377 249.846 35.1658C245.17 29.8852 240.536 36.6326 233.217 36.396C225.897 36.1594 227.76 35.3219 223.51 36.7367C219.259 38.1515 217.126 44.7805 215.713 47.1464C214.299 49.5122 208.398 49.5122 207.202 51.4049C206.006 53.2975 206.493 58.7248 204.601 61.0859C202.71 63.447 200.346 63.9249 202.951 66.2907C205.556 68.6565 200.114 71.9687 202.946 75.5127Z" fill="#1F1844"/>
<path d="M261.473 88.2882L261.388 88.3971L261.298 88.5106C261.285 88.5391 261.277 88.5694 261.274 88.6005C261.274 88.681 261.246 88.804 261.227 88.9649C261.208 89.1257 261.189 89.3907 261.175 89.6557C261.175 89.755 261.175 89.8497 261.175 89.9538C261.175 90.1383 261.151 90.3323 261.142 90.5263C261.142 90.8291 261.114 91.1414 261.104 91.4395C261.095 91.7376 261.104 92.0262 261.08 92.2818C261.057 92.5373 261.08 92.665 261.08 92.8685C261.057 95.1917 261.024 98.2105 260.986 101.121C260.953 105.332 261.08 108.951 261.104 110.357C261.156 113.764 255.685 125.81 248.513 125.933C241.34 126.056 233.95 116.598 233.95 116.598L234.47 114.331L235.94 107.622L236.73 104.154C236.487 104.111 236.249 104.043 236.021 103.95C235.713 103.836 235.316 103.676 234.857 103.477C231.708 102.057 226.375 98.2105 224.507 92.1209C222.777 86.5044 224.068 81.6213 224.12 78.3186C224.172 75.0159 222.838 72.669 222.257 68.9735C221.514 64.2419 223.434 58.3084 225.774 56.9267C236.285 50.6525 255.25 56.6192 255.25 56.6192C255.25 56.6192 264.787 58.5402 262.206 71.7842C262.858 71.3536 261.993 74.221 262.891 74.0459C264.783 73.71 262.712 74.8692 263.804 75.7256C266.201 77.5994 266.201 82.0992 261.473 88.2882Z" fill="url(#paint3_linear_5_46)"/>
<path d="M262.759 70.5681C265.345 57.3194 255.246 56.6239 255.246 56.6239C255.246 56.6239 236.285 50.6573 225.774 56.9314C224.124 57.9062 223.831 60.4707 223.448 62.6615C227.656 59.3493 238.281 59.7894 244.971 60.0449C248.172 60.1679 247.056 62.9785 247.945 63.1441C255.038 61.9281 260.622 67.4594 259.26 77.4811L261.151 74.9118C260.437 74.8976 263.388 70.147 262.759 70.5681Z" fill="url(#paint4_linear_5_46)"/>
<path d="M261.473 88.2882L261.388 88.3971C261.364 88.4349 261.336 88.4728 261.303 88.5106C261.288 88.5385 261.278 88.569 261.274 88.6005C261.274 88.6809 261.246 88.804 261.227 88.9649C261.208 89.1257 261.194 89.3907 261.175 89.6557C261.175 89.755 261.175 89.8497 261.175 89.9538C261.175 90.1383 261.151 90.3323 261.142 90.5263C261.142 90.8291 261.118 91.1414 261.104 91.4395C261.09 91.7376 261.104 92.0262 261.08 92.2817C261.057 92.5373 261.08 92.665 261.08 92.8685C255.354 102.365 245.766 105.881 236.205 106.685L236.777 104.154C249.61 102.119 256.149 92.9584 261.473 88.2882Z" fill="url(#paint5_linear_5_46)"/>
<path d="M260.475 79.1277C260.475 79.1277 262.258 76.6909 263.506 78.5552C264.754 80.4195 262.783 83.5897 262.783 83.5897L260.475 79.1277Z" fill="url(#paint6_linear_5_46)"/>
<path d="M235.94 115.093L235.6 114.752C235.255 121.788 235.647 128.824 235.179 135.865C233.165 153.524 230.725 171.263 228.205 189.428C227.406 196.998 231.226 203.495 231.226 203.495L239.595 203.821C239.595 203.821 245.978 193.151 247.95 182.87C251.733 159.107 254.272 137.1 259.019 114.809C258.868 114.786 246.494 125.692 235.94 115.093Z" fill="url(#paint7_linear_5_46)"/>
<path d="M208.176 133.859C208.776 133.911 208.715 133.835 208.148 133.655C208.129 133.783 208.138 133.854 208.176 133.859Z" fill="url(#paint8_linear_5_46)"/>
<path d="M289.649 123.714C286.542 119.271 266.858 108.01 260.924 104.707C260.924 106.06 265.917 111.904 254.688 117.251C253.028 125.053 241.037 185.68 241.037 185.68C241.037 185.68 239.335 185.604 237.954 185.623C236.777 188.623 235.59 198.016 235.59 198.016L239.723 198.673C239.723 198.673 239.066 280.408 237.832 288.215C244.281 288.381 253.832 289.517 262.319 289.545C275.01 289.592 283.445 283.29 283.076 273.457C282.102 247.495 277.369 203.75 278.348 197.926C278.476 197.15 284.968 195.162 285.44 192.877C288.831 176.988 296.462 133.433 289.649 123.714Z" fill="url(#paint9_linear_5_46)"/>
<path d="M233.675 189.338C236.196 171.178 235.264 121.788 235.609 114.752C233.718 112.86 232.229 111.294 232.21 111.066C232.191 110.839 214.129 119.418 213.051 121.604C206.039 135.685 191.409 165.362 191.409 165.362L173.352 134.81C172.825 133.92 172.02 133.228 171.062 132.839C170.104 132.45 169.045 132.386 168.047 132.657L159.777 134.924C159.218 135.077 158.7 135.354 158.262 135.733C157.823 136.113 157.475 136.586 157.243 137.118C157.011 137.649 156.901 138.226 156.92 138.806C156.94 139.386 157.089 139.954 157.357 140.469L181.13 186.205C182.8 189.124 185.411 191.389 188.535 192.628C191.66 193.868 195.112 194.009 198.327 193.028L214.876 181.389L198.918 273.557C197.783 278.975 202.544 283.427 207.121 284.69C210.049 285.534 213.024 286.207 216.03 286.706C215.93 279.116 232.876 196.927 233.675 189.338Z" fill="url(#paint10_linear_5_46)"/>
<path d="M269.804 152.256L267.218 179.666L241.037 186.248L261.577 179.941L269.804 152.256Z" fill="url(#paint11_linear_5_46)"/>
<path d="M269.804 213.919H274.438C274.438 213.919 277.18 239.782 264.792 239.943C252.404 240.104 253.487 222.833 253.487 222.833" stroke="white" stroke-width="1.21" stroke-miterlimit="10"/>
<path d="M224.016 160.546L263.388 157.867L266.617 217.605L226.867 218.844L224.016 160.546Z" fill="url(#paint12_linear_5_46)"/>
<path d="M265.435 180.002L246.276 182.633L247.51 197.987L267.218 198.162L265.435 180.002Z" fill="url(#paint13_linear_5_46)"/>
<path d="M246.465 184.341C246.45 184.16 246.392 183.986 246.296 183.832C246.2 183.678 246.068 183.549 245.912 183.456C243.724 182.155 241.695 180.603 239.865 178.833C237.316 176.283 232.545 173.875 230.408 174.655C230.17 174.763 229.975 174.947 229.855 175.179C229.735 175.411 229.697 175.676 229.746 175.933C230.328 178.701 234.347 179.174 233.491 180.106C231.009 179.681 228.555 179.106 226.143 178.384C224.285 177.811 222.833 179.633 223.259 180.892C223.322 181.129 223.304 181.381 223.209 181.608C223.114 181.835 222.947 182.024 222.734 182.146C221.524 182.941 221.916 184.62 222.536 185.198C223.32 185.926 220.086 187.019 221.883 188.836C223.68 190.653 220.753 192.148 222.753 193.79C224.753 195.432 227.713 197.348 232.077 196.8C236.441 196.251 247.506 196.847 247.506 196.847L246.465 184.341Z" fill="url(#paint14_linear_5_46)"/>
<path d="M263.917 127.987C263.917 127.987 267.7 116.934 267.227 108.403" stroke="url(#paint15_linear_5_46)" stroke-width="3.1" stroke-miterlimit="10" stroke-linecap="round"/>
<path d="M257.823 121.982L270.48 118.718L260.825 104.395C260.825 104.395 260.556 115.32 254.678 117.251C253.813 122.782 247.586 147.533 244.588 159.197L246.394 159.022L261.355 131.067L257.823 121.982Z" fill="url(#paint16_linear_5_46)"/>
<path d="M271.483 160.404C271.483 160.404 261.08 164.222 258.546 145.059C256.012 125.896 263.369 127.045 266.754 128.971C270.475 131.091 276.211 149.459 260.418 161.88" stroke="url(#paint17_linear_5_46)" stroke-width="3.1" stroke-miterlimit="10"/>
<path d="M273.168 160.501C273.238 159.557 272.529 158.736 271.586 158.667C270.644 158.598 269.823 159.307 269.754 160.25C269.685 161.194 270.394 162.015 271.336 162.084C272.279 162.153 273.099 161.444 273.168 160.501Z" fill="#1F1844"/>
<path d="M260.94 162.671C261.009 161.727 260.3 160.906 259.358 160.837C258.415 160.768 257.595 161.477 257.526 162.42C257.457 163.364 258.165 164.185 259.108 164.254C260.05 164.323 260.871 163.614 260.94 162.671Z" fill="#1F1844"/>
<path d="M225.065 116.839C225.065 116.839 219.112 139.438 223.434 148.248" stroke="url(#paint18_linear_5_46)" stroke-width="3.1" stroke-miterlimit="10" stroke-linecap="round"/>
<path d="M223.443 153.775C226.493 153.775 228.966 151.3 228.966 148.248C228.966 145.196 226.493 142.721 223.443 142.721C220.393 142.721 217.921 145.196 217.921 148.248C217.921 151.3 220.393 153.775 223.443 153.775Z" fill="url(#paint19_linear_5_46)"/>
<path d="M235.401 153.017L226.616 133.878L230.266 126.667L221.41 118.292C225.432 114.472 229.683 110.9 234.139 107.598C234.826 107.329 235.498 107.024 236.153 106.685V118.273C234.82 133.622 235.401 153.017 235.401 153.017Z" fill="url(#paint20_linear_5_46)"/>
</g>
<path d="M233.146 78.2902C237.519 78.4085 245.203 84.678 249.458 83.495C253.714 82.3121 259.619 76.8707 259.619 76.8707C259.619 76.8707 255.123 83.495 259.619 90.0105C264.116 96.5261 242.598 105.19 236.158 104.376C229.718 103.562 224.365 94.7044 223.363 88.8229C222.361 82.9414 223.727 80.4952 223.727 80.4952C223.727 80.4952 228.772 78.1719 233.146 78.2902Z" fill="url(#paint21_linear_5_46)"/>
<path d="M16.5489 243.407C16.5489 243.407 31.0316 234.819 32.3697 226.5C33.7077 218.182 35.8449 205.828 39.8687 201.806C43.8924 197.784 50.3276 193.085 53.1456 185.836C55.9637 178.587 58.7344 173.458 61.6801 179.766C59.7888 186.475 47.3772 225.961 47.3772 225.961L72.1863 234.412C72.1863 234.412 60.6541 243.269 52.0723 245.82C43.4905 248.37 32.2136 265.007 32.2136 265.007C32.2136 265.007 17.7451 246.761 16.5489 243.407Z" fill="url(#paint22_linear_5_46)"/>
<path d="M95.2792 193.909C95.6811 193.776 109.36 185.723 110.968 188.808C112.575 191.893 91.7944 204.375 91.7944 204.375L95.2792 193.909Z" fill="url(#paint23_linear_5_46)"/>
<path d="M102.674 168.148L71.3346 157.915C70.4564 157.628 69.5121 158.108 69.2256 158.987L47.9603 224.201C47.6737 225.08 48.1533 226.025 49.0315 226.312L80.3712 236.546C81.2494 236.832 82.1936 236.353 82.4802 235.474L103.745 170.259C104.032 169.38 103.552 168.435 102.674 168.148Z" fill="#1F1844"/>
<path d="M95.1391 172.513L73.6508 165.398C71.6502 164.735 69.4916 165.821 68.8296 167.823L53.0232 215.624C52.3612 217.626 53.4463 219.786 55.447 220.448L76.9352 227.564C78.9359 228.227 81.0944 227.141 81.7565 225.139L97.5629 177.338C98.2249 175.336 97.1397 173.176 95.1391 172.513Z" fill="white"/>
<path d="M91.1136 206.509C91.1136 206.509 97.2272 205.16 96.4234 209.991C95.6196 214.823 93.8039 215.627 93.8039 215.627C93.8039 215.627 96.4139 217.941 93.8039 220.557C92.2433 222.124 90.3558 223.326 88.2766 224.078C88.2766 224.078 92.8677 223.978 92.0308 226.595C91.1939 229.212 82.6074 232.221 82.6074 232.221L91.1136 206.509Z" fill="url(#paint24_linear_5_46)"/>
<path d="M65.7511 231.062C67.3075 231.062 68.5692 229.799 68.5692 228.242C68.5692 226.684 67.3075 225.421 65.7511 225.421C64.1948 225.421 62.9331 226.684 62.9331 228.242C62.9331 229.799 64.1948 231.062 65.7511 231.062Z" fill="white"/>
<path d="M78.1629 186.026V188.619C78.1629 189.082 77.979 189.526 77.6518 189.853C77.3246 190.181 76.8809 190.365 76.4181 190.365H75.4346C74.9004 190.365 74.3881 190.577 74.0104 190.955C73.6326 191.333 73.4204 191.846 73.4204 192.38V201.692C73.4204 202.227 73.6326 202.739 74.0104 203.117C74.3881 203.495 74.9004 203.708 75.4346 203.708H76.4181C76.8809 203.708 77.3246 203.892 77.6518 204.219C77.979 204.547 78.1629 204.991 78.1629 205.454V208.137C78.1629 208.6 77.979 209.044 77.6518 209.371C77.3246 209.699 76.8809 209.883 76.4181 209.883H75.3448C73.8613 209.883 72.4386 209.293 71.3896 208.243C70.3406 207.193 69.7513 205.77 69.7513 204.285V189.872C69.7513 188.388 70.3406 186.964 71.3896 185.914C72.4386 184.865 73.8613 184.275 75.3448 184.275H76.4181C76.6476 184.275 76.8749 184.32 77.0869 184.408C77.2989 184.496 77.4914 184.625 77.6535 184.788C77.8156 184.951 77.944 185.144 78.0314 185.356C78.1188 185.568 78.1635 185.796 78.1629 186.026Z" fill="#1F1844"/>
<path d="M251.014 47.0706C248.967 42.5188 237.34 38.8565 229.117 40.664C223.85 41.8232 217.448 45.0597 214.899 51.3717C212.758 56.6712 209.287 69.5224 222.999 76.8707C226.101 66.7165 239.382 72.3945 247.071 58.1995C248.546 55.4741 249.004 61.4833 249.874 61.5779C257.511 59.6853 261.87 63.9438 259.619 76.8896C259.95 75.5695 263.341 75.4133 264.173 76.5963C264.646 77.2398 267.137 79.8658 262.253 87.0059C262.428 87.1061 262.616 87.1825 262.811 87.2331C265.095 87.8813 266.594 86.4523 267.17 84.1527C268.258 79.7712 268.352 78.6309 269.572 70.27C271.133 59.5244 265.085 44.6196 251.014 47.0706Z" fill="#1F1844"/>
<defs>
<linearGradient id="paint0_linear_5_46" x1="18.776" y1="140.389" x2="314.67" y2="140.389" gradientUnits="userSpaceOnUse">
<stop stop-color="#F0F2F5"/>
<stop offset="0.99" stop-color="#F5F7F8"/>
</linearGradient>
<linearGradient id="paint1_linear_5_46" x1="113.28" y1="128.801" x2="331.461" y2="128.801" gradientUnits="userSpaceOnUse">
<stop stop-color="white"/>
<stop offset="0.16" stop-color="#F2F3F8"/>
<stop offset="0.71" stop-color="#CACDE2"/>
<stop offset="0.99" stop-color="#BBBFD9"/>
</linearGradient>
<linearGradient id="paint2_linear_5_46" x1="149.12" y1="121.458" x2="176.609" y2="110.76" gradientUnits="userSpaceOnUse">
<stop stop-color="#A04400"/>
<stop offset="0.3" stop-color="#9C4200"/>
<stop offset="0.62" stop-color="#8E3D00"/>
<stop offset="0.95" stop-color="#793300"/>
<stop offset="1" stop-color="#753200"/>
</linearGradient>
<linearGradient id="paint3_linear_5_46" x1="222.086" y1="89.9964" x2="265.364" y2="89.9964" gradientUnits="userSpaceOnUse">
<stop stop-color="#753200"/>
<stop offset="1" stop-color="#A04400"/>
</linearGradient>
<linearGradient id="paint4_linear_5_46" x1="236.736" y1="69.8096" x2="260.994" y2="58.6686" gradientUnits="userSpaceOnUse">
<stop stop-color="#A04400" stop-opacity="0"/>
<stop offset="0.18" stop-color="#9A4100" stop-opacity="0.14"/>
<stop offset="0.52" stop-color="#8A3B00" stop-opacity="0.52"/>
<stop offset="0.9" stop-color="#753200"/>
</linearGradient>
<linearGradient id="paint5_linear_5_46" x1="258.853" y1="89.315" x2="238.668" y2="109.112" gradientUnits="userSpaceOnUse">
<stop stop-color="#A04400"/>
<stop offset="1" stop-color="#753200"/>
</linearGradient>
<linearGradient id="paint6_linear_5_46" x1="263.909" y1="79.5649" x2="261.279" y2="81.4935" gradientUnits="userSpaceOnUse">
<stop stop-color="#753200"/>
<stop offset="1" stop-color="#A04400"/>
</linearGradient>
<linearGradient id="paint7_linear_5_46" x1="228.101" y1="159.282" x2="259.028" y2="159.282" gradientUnits="userSpaceOnUse">
<stop offset="0.09" stop-color="#D9D9D9"/>
<stop offset="1" stop-color="#E6E6E6"/>
</linearGradient>
<linearGradient id="paint8_linear_5_46" x1="208.138" y1="133.764" x2="208.601" y2="133.764" gradientUnits="userSpaceOnUse">
<stop stop-color="#A7A5EE"/>
<stop offset="0.44" stop-color="#9D9CE8"/>
<stop offset="0.89" stop-color="#8988D5"/>
</linearGradient>
<linearGradient id="paint9_linear_5_46" x1="235.609" y1="197.126" x2="292.377" y2="197.126" gradientUnits="userSpaceOnUse">
<stop stop-color="#A7A5EE"/>
<stop offset="0.44" stop-color="#9D9CE8"/>
<stop offset="0.89" stop-color="#8988D5"/>
</linearGradient>
<linearGradient id="paint10_linear_5_46" x1="156.912" y1="198.882" x2="235.609" y2="198.882" gradientUnits="userSpaceOnUse">
<stop stop-color="#A7A5EE"/>
<stop offset="0.44" stop-color="#9D9CE8"/>
<stop offset="0.89" stop-color="#8988D5"/>
</linearGradient>
<linearGradient id="paint11_linear_5_46" x1="241.037" y1="169.252" x2="269.804" y2="169.252" gradientUnits="userSpaceOnUse">
<stop stop-color="#A7A5EE"/>
<stop offset="0.44" stop-color="#9D9CE8"/>
<stop offset="0.89" stop-color="#8988D5"/>
</linearGradient>
<linearGradient id="paint12_linear_5_46" x1="224.016" y1="188.358" x2="266.617" y2="188.358" gradientUnits="userSpaceOnUse">
<stop offset="0.09" stop-color="#D9D9D9"/>
<stop offset="1" stop-color="#E6E6E6"/>
</linearGradient>
<linearGradient id="paint13_linear_5_46" x1="246.276" y1="189.082" x2="267.218" y2="189.082" gradientUnits="userSpaceOnUse">
<stop offset="0.11" stop-color="#8988D5"/>
<stop offset="1" stop-color="#9695E1"/>
</linearGradient>
<linearGradient id="paint14_linear_5_46" x1="225.174" y1="177.811" x2="243.923" y2="199.89" gradientUnits="userSpaceOnUse">
<stop stop-color="#A04400"/>
<stop offset="0.3" stop-color="#9C4200"/>
<stop offset="0.62" stop-color="#8E3D00"/>
<stop offset="0.95" stop-color="#793300"/>
<stop offset="1" stop-color="#753200"/>
</linearGradient>
<linearGradient id="paint15_linear_5_46" x1="263.184" y1="118.192" x2="267.993" y2="118.192" gradientUnits="userSpaceOnUse">
<stop stop-color="#F0F2F5"/>
<stop offset="0.99" stop-color="#F5F7F8"/>
</linearGradient>
<linearGradient id="paint16_linear_5_46" x1="244.593" y1="131.796" x2="270.48" y2="131.796" gradientUnits="userSpaceOnUse">
<stop stop-color="#A7A5EE"/>
<stop offset="0.44" stop-color="#9D9CE8"/>
<stop offset="0.89" stop-color="#8988D5"/>
</linearGradient>
<linearGradient id="paint17_linear_5_46" x1="256.75" y1="144.406" x2="272.877" y2="145.586" gradientUnits="userSpaceOnUse">
<stop stop-color="#F0F2F5"/>
<stop offset="0.99" stop-color="#F5F7F8"/>
</linearGradient>
<linearGradient id="paint18_linear_5_46" x1="221.136" y1="132.544" x2="225.808" y2="132.544" gradientUnits="userSpaceOnUse">
<stop stop-color="#F0F2F5"/>
<stop offset="0.99" stop-color="#F5F7F8"/>
</linearGradient>
<linearGradient id="paint19_linear_5_46" x1="217.921" y1="148.248" x2="228.966" y2="148.248" gradientUnits="userSpaceOnUse">
<stop stop-color="#F0F2F5"/>
<stop offset="0.99" stop-color="#F5F7F8"/>
</linearGradient>
<linearGradient id="paint20_linear_5_46" x1="221.41" y1="129.851" x2="236.153" y2="129.851" gradientUnits="userSpaceOnUse">
<stop stop-color="#A7A5EE"/>
<stop offset="0.44" stop-color="#9D9CE8"/>
<stop offset="0.89" stop-color="#8988D5"/>
</linearGradient>
<linearGradient id="paint21_linear_5_46" x1="222.994" y1="90.6493" x2="260.229" y2="90.6493" gradientUnits="userSpaceOnUse">
<stop offset="0.09" stop-color="#D9D9D9"/>
<stop offset="1" stop-color="#E6E6E6"/>
</linearGradient>
<linearGradient id="paint22_linear_5_46" x1="16.5394" y1="220.964" x2="72.1863" y2="220.964" gradientUnits="userSpaceOnUse">
<stop stop-color="#A96E46"/>
<stop offset="1" stop-color="#FFD0B9"/>
</linearGradient>
<linearGradient id="paint23_linear_5_46" x1="91.7944" y1="196.237" x2="111.057" y2="196.237" gradientUnits="userSpaceOnUse">
<stop stop-color="#A96E46"/>
<stop offset="1" stop-color="#FFD0B9"/>
</linearGradient>
<linearGradient id="paint24_linear_5_46" x1="82.6122" y1="219.28" x2="96.4943" y2="219.28" gradientUnits="userSpaceOnUse">
<stop stop-color="#A96E46"/>
<stop offset="1" stop-color="#FFD0B9"/>
</linearGradient>
</defs>
</svg>
